<svg width="1024" height="1024" viewBox="0 0 1024 1024" xmlns="http://www.w3.org/2000/svg">
  <defs>
    <!-- 배경 그라데이션 -->
    <linearGradient id="bgGradient" x1="0%" y1="0%" x2="100%" y2="100%">
      <stop offset="0%" style="stop-color:#667eea;stop-opacity:1" />
      <stop offset="100%" style="stop-color:#764ba2;stop-opacity:1" />
    </linearGradient>
    
    <!-- 책 그라데이션 -->
    <linearGradient id="bookGradient" x1="0%" y1="0%" x2="100%" y2="100%">
      <stop offset="0%" style="stop-color:#ffffff;stop-opacity:0.95" />
      <stop offset="100%" style="stop-color:#f8f9fa;stop-opacity:0.9" />
    </linearGradient>
    
    <!-- 체크마크 그라데이션 -->
    <linearGradient id="checkGradient" x1="0%" y1="0%" x2="100%" y2="100%">
      <stop offset="0%" style="stop-color:#4ade80;stop-opacity:1" />
      <stop offset="100%" style="stop-color:#22c55e;stop-opacity:1" />
    </linearGradient>
    
    <!-- 그림자 필터 -->
    <filter id="shadow" x="-50%" y="-50%" width="200%" height="200%">
      <feDropShadow dx="0" dy="8" stdDeviation="16" flood-color="#000000" flood-opacity="0.25"/>
    </filter>
  </defs>
  
  <!-- 배경 원형 -->
  <circle cx="512" cy="512" r="480" fill="url(#bgGradient)" />
  
  <!-- 책 아이콘 -->
  <g transform="translate(256, 280)" filter="url(#shadow)">
    <!-- 책 뒷면 -->
    <rect x="20" y="20" width="480" height="360" rx="24" ry="24" fill="url(#bookGradient)" opacity="0.8" />
    
    <!-- 책 앞면 -->
    <rect x="0" y="0" width="480" height="360" rx="24" ry="24" fill="url(#bookGradient)" stroke="#e5e7eb" stroke-width="4" />
    
    <!-- 책 페이지 -->
    <rect x="40" y="40" width="400" height="8" rx="4" ry="4" fill="#6b7280" opacity="0.3" />
    <rect x="40" y="70" width="320" height="8" rx="4" ry="4" fill="#6b7280" opacity="0.3" />
    <rect x="40" y="100" width="360" height="8" rx="4" ry="4" fill="#6b7280" opacity="0.3" />
    <rect x="40" y="130" width="280" height="8" rx="4" ry="4" fill="#6b7280" opacity="0.3" />
    <rect x="40" y="160" width="340" height="8" rx="4" ry="4" fill="#6b7280" opacity="0.3" />
    
    <!-- 책 제목 영역 -->
    <rect x="40" y="220" width="400" height="100" rx="8" ry="8" fill="#667eea" opacity="0.1" />
    <text x="240" y="280" text-anchor="middle" font-family="Arial, sans-serif" font-size="36" font-weight="bold" fill="#667eea">STUDY</text>
  </g>
  
  <!-- 체크마크 아이콘 (우하단) -->
  <g transform="translate(640, 640)">
    <!-- 체크마크 배경 원 -->
    <circle cx="80" cy="80" r="72" fill="url(#checkGradient)" filter="url(#shadow)" />
    
    <!-- 체크마크 -->
    <path d="M 40 80 L 70 110 L 120 50" stroke="#ffffff" stroke-width="12" stroke-linecap="round" stroke-linejoin="round" fill="none" />
  </g>
  
  <!-- 진행 표시 점들 -->
  <g opacity="0.6">
    <circle cx="200" cy="800" r="12" fill="#ffffff" />
    <circle cx="240" cy="800" r="12" fill="#ffffff" />
    <circle cx="280" cy="800" r="12" fill="#ffffff" />
    <circle cx="320" cy="800" r="8" fill="#ffffff" opacity="0.5" />
    <circle cx="360" cy="800" r="8" fill="#ffffff" opacity="0.3" />
  </g>
</svg> 